#!OML:ASF H:\Male1\Project 1\Capture day 1\Session 1\Male1.ASF
:FULLY-SPECIFIED
:DEGREES
720
root 15.7542 15.4312 2.83256 177.725 61.1514 181.258
lowerback 4.7604 -0.665874 -1.9576
upperback 3.45264 -0.844922 -0.988727
thorax 0.893874 -0.399451 0.116176
lowerneck -6.82482 6.4024 9.42582
upperneck 3.66521 8.22271 -8.80647
head 2.95564 3.95233 -3.76711
rclavicle -2.18663e-015 -2.06736e-014
rhumerus -58.0759 35.4472 -86.5672
rradius 100.148
rwrist -21.4931
rhand -47.6008 22.2691
rfingers 7.12502
rthumb -20.2848 -6.69164
lclavicle -2.18663e-015 -2.06736e-014
lhumerus 48.061 -19.0656 42.9007
lradius 26.5692
lwrist -10.3244
lhand -5.93125 13.2472
lfingers 7.12502
lthumb 19.8984 42.2485
rfemur -2.65162 21.6411 19.6088
rtibia 21.542
rfoot -22.3436 -25.858
rtoes -25.7058
lfemur 1.50913 -23.599 -18.7719
ltibia 20.1516
lfoot -20.8527 25.3686
ltoes -14.6863
721
root 15.746 15.4286 2.83486 177.202 61.0464 180.76
lowerback 4.7625 -0.65157 -2.32874
upperback 3.42308 -0.837831 -1.09763
thorax 0.867023 -0.4 0.212141
lowerneck -6.66724 6.41889 9.6599
upperneck 3.64507 8.23612 -8.83074
head 2.93577 3.96475 -3.81549
rclavicle -1.41634e-014 1.15295e-014
rhumerus -53.8842 36.0042 -83.412
rradius 100.253
rwrist -20.9969
rhand -47.5711 21.7629
rfingers 7.12502
rthumb -20.2562 -7.20086
lclavicle -1.41634e-014 1.15295e-014
lhumerus 47.8751 -19.1758 42.8896
lradius 26.7586
lwrist -10.4404
lhand -6.17941 13.1435
lfingers 7.12502
lthumb 19.6599 42.1693
rfemur -2.62765 21.5329 19.3773
rtibia 21.6892
rfoot -22.2224 -26.0257
rtoes -26.2992
lfemur 1.58913 -23.5198 -19.0401
ltibia 20.0254
lfoot -20.6644 25.2607
ltoes -14.8673
722
root 15.7373 15.4269 2.83711 176.956 61.0215 180.561
lowerback 4.7889 -0.548765 -2.47282
upperback 3.35792 -0.708724 -1.18457
thorax 0.783668 -0.335909 0.199339
lowerneck -6.55395 6.36453 9.82153
upperneck 3.67494 8.15509 -8.77749
head 2.92286 3.93049 -3.83327
rclavicle -8.15017e-015 -1.51076e-014
rhumerus -49.7477 36.3098 -80.2587
rradius 100.333
rwrist -20.9289
rhand -47.6554 22.5365
rfingers 7.12502
rthumb -20.3373 -6.41861
lclavicle -8.15017e-015 -1.51076e-014
lhumerus 47.8488 -19.6608 42.5318
lradius 27.1083
lwrist -10.1415
lhand -6.65959 13.1252
lfingers 7.12502
lthumb 19.1982 42.1976
rfemur -2.69392 21.5184 19.2924
rtibia 21.9204
rfoot -22.015 -26.2865
rtoes -27.2217
lfemur 1.73197 -23.4671 -19.1623
ltibia 19.7925
lfoot -20.443 25.2308
ltoes -14.8892
723
root 15.7324 15.4279 2.83949 176.392 60.8586 179.966
lowerback 4.70733 -0.44289 -2.83117
upperback 3.30954 -0.577881 -1.28167
thorax 0.780285 -0.27459 0.294673
lowerneck -6.37916 6.28636 9.86347
upperneck 3.65195 8.0571 -8.73034
head 2.87796 3.88781 -3.83752
rclavicle -2.73329e-015 3.18055e-015
rhumerus -45.3024 36.2854 -76.6722
rradius 100.372
rwrist -19.8243
rhand -47.431 21.5664
rfingers 7.12502
rthumb -20.1216 -7.41162
lclavicle -2.73329e-015 3.18055e-015
lhumerus 47.9596 -20.2512 42.1307
lradius 27.4758
lwrist -9.62856
lhand -7.0454 12.9694
lfingers 7.12502
lthumb 18.8272 42.0783
rfemur -2.72387 21.7416 18.9953
rtibia 22.0757
rfoot -22.5423 -26.3101
rtoes -26.6629
lfemur 1.79648 -23.5263 -19.4754
ltibia 19.6418
lfoot -20.2586 25.1808
ltoes -15.0296
724
root 15.727 15.4307 2.8416 175.817 60.7557 179.246
lowerback 4.52785 -0.347927 -3.29538
upperback 3.24762 -0.462558 -1.32922
thorax 0.818638 -0.224262 0.500138
lowerneck -6.22485 6.24403 9.70067
upperneck 3.65121 8.01953 -8.59755
head 2.83679 3.8744 -3.77835
rclavicle 3.34952e-014 7.95139e-015
rhumerus -40.7669 36.5345 -73.1632
rradius 100.345
rwrist -19.8441
rhand -47.5773 21.7195
rfingers 7.12502
rthumb -20.2622 -7.24365
lclavicle 3.34952e-014 7.95139e-015
lhumerus 47.9897 -20.6184 41.9856
lradius 27.799
lwrist -9.28466
lhand -7.13643 12.7615
lfingers 7.12502
lthumb 18.7396 41.8788
rfemur -2.80446 21.9131 18.5758
rtibia 22.0844
rfoot -22.9323 -26.2198
rtoes -26.562
lfemur 1.68564 -23.5621 -19.8196
ltibia 19.628
lfoot -20.1061 25.2099
ltoes -15.4068
725
root 15.7209 15.4289 2.84246 176.189 60.664 179.701
lowerback 4.45083 -0.285485 -3.11378
upperback 3.22037 -0.374324 -1.27115
thorax 0.828995 -0.179198 0.454686
lowerneck -6.27355 6.22161 9.57708
upperneck 3.78053 7.9854 -8.35296
head 2.8647 3.86131 -3.68356
rclavicle -3.0265e-014 1.74931e-014
rhumerus -35.6724 36.3575 -69.3247
rradius 100.015
rwrist -18.8178
rhand -47.5946 20.9776
rfingers 7.12502
rthumb -20.2788 -7.98381
lclavicle -3.0265e-014 1.74931e-014
lhumerus 48.0965 -20.9418 41.7394
lradius 28.1046
lwrist -9.03906
lhand -7.00958 12.7005
lfingers 7.12502
lthumb 18.8616 41.806
rfemur -2.70778 21.7587 18.8334
rtibia 21.9865
rfoot -22.5807 -26.4326
rtoes -26.1461
lfemur 1.62957 -23.5661 -19.5732
ltibia 19.6948
lfoot -20.0221 25.1652
ltoes -15.648
726
root 15.7155 15.4277 2.84258 176.942 60.477 180.693
lowerback 4.45422 -0.288477 -2.61505
upperback 3.26268 -0.362443 -1.19258
thorax 0.865831 -0.167336 0.255782
lowerneck -6.38271 6.23376 9.56907
upperneck 3.86161 7.9805 -8.13075
head 2.8963 3.86246 -3.61078
rclavicle 1.33186e-014 -7.95139e-016
rhumerus -30.1768 35.9864 -65.485
rradius 99.4166
rwrist -17.957
rhand -47.4584 20.8371
rfingers 7.12502
rthumb -20.1479 -8.13812
lclavicle 1.33186e-014 -7.95139e-016
lhumerus 48.316 -21.2032 41.2962
lradius 28.3543
lwrist -8.8067
lhand -6.93093 12.5989
lfingers 7.12502
lthumb 18.9372 41.697
rfemur -2.44601 21.596 19.3908
rtibia 21.7858
rfoot -22.6328 -26.4753
rtoes -25.7933
lfemur 1.60793 -23.5927 -19.0689
ltibia 19.8713
lfoot -19.83 25.0607
ltoes -16.4872
727
root 15.7092 15.4283 2.84323 177.401 60.3669 181.414
lowerback 4.49393 -0.279069 -2.22091
upperback 3.35285 -0.33435 -1.13377
thorax 0.932701 -0.147647 0.0944079
lowerneck -6.52424 6.24615 9.4988
upperneck 3.92703 7.98606 -8.01767
head 2.93172 3.86443 -3.55997
rclavicle -4.52235e-014 -9.54166e-015
rhumerus -24.2648 35.3697 -61.5753
rradius 98.4965
rwrist -17.2291
rhand -47.1211 20.6616
rfingers 7.12502
rthumb -19.8237 -8.34749
lclavicle -4.52235e-014 -9.54166e-015
lhumerus 48.5374 -21.3321 40.9731
lradius 28.5023
lwrist -8.76854
lhand -7.02275 12.3722
lfingers 7.12502
lthumb 18.8489 41.479
rfemur -2.13271 21.6921 19.7887
rtibia 21.5256
rfoot -23.2903 -26.1206
rtoes -24.2101
lfemur 1.62976 -23.5945 -18.742
ltibia 20.1192
lfoot -19.4212 25.112
ltoes -18.2932
728
root 15.7015 15.4267 2.84498 177.425 60.3532 181.653
lowerback 4.54565 -0.187266 -2.02326
upperback 3.42779 -0.201913 -1.14154
thorax 0.977426 -0.0771225 -0.0289206
lowerneck -6.635 6.18714 9.51462
upperneck 4.02153 7.90368 -8.06384
head 2.97348 3.82003 -3.57755
rclavicle -1.24737e-014 1.59028e-014
rhumerus -18.4657 34.1853 -57.9237
rradius 97.2575
rwrist -16.0365
rhand -46.6042 20.264
rfingers 7.12502
rthumb -19.3268 -8.79556
lclavicle -1.24737e-014 1.59028e-014
lhumerus 48.8355 -21.6148 40.6005
lradius 28.6681
lwrist -8.78755
lhand -6.9748 12.4473
lfingers 7.12502
lthumb 18.8951 41.5496
rfemur -1.85439 21.8166 19.9613
rtibia 21.3533
rfoot -23.5237 -25.9788
rtoes -23.6565
lfemur 1.73006 -23.5516 -18.6879
ltibia 20.2818
lfoot -19.4551 25.0946
ltoes -18.5298
